<!DOCTYPE svg PUBLIC "-//W3C//DTD SVG 1.1//EN" "http://www.w3.org/Graphics/SVG/1.1/DTD/svg11.dtd">
<!-- Uploaded to: SVG Repo, www.svgrepo.com, Transformed by: SVG Repo Mixer Tools -->
<svg fill="#34c1c6" height="256px" width="256px" version="1.1" id="Capa_1" xmlns="http://www.w3.org/2000/svg" xmlns:xlink="http://www.w3.org/1999/xlink" viewBox="-0.6 -0.6 61.20 61.20" xml:space="preserve" stroke="#34c1c6">
<g id="SVGRepo_bgCarrier" stroke-width="0"/>
<g id="SVGRepo_tracerCarrier" stroke-linecap="round" stroke-linejoin="round" stroke="#CCCCCC" stroke-width="0.360012"/>
<g id="SVGRepo_iconCarrier"> <g> <path d="M59.795,26.567c-0.609-2.575-2.454-4.445-4.388-4.445c-0.234,0-0.469,0.027-0.696,0.082 c-0.186,0.044-0.365,0.112-0.54,0.193c-2.333-5.721-5.968-9.411-9.711-11.781l1.335-2.67c0.247-0.494,0.047-1.095-0.447-1.342 c-0.495-0.246-1.095-0.047-1.342,0.447L42.727,9.61c-0.619-0.328-1.236-0.629-1.844-0.895l0.967-2.9 c0.175-0.524-0.108-1.091-0.632-1.265c-0.525-0.177-1.09,0.108-1.265,0.632l-0.933,2.8c-0.693-0.246-1.367-0.456-2.014-0.634 l0.845-2.534c0.175-0.524-0.108-1.091-0.632-1.265c-0.526-0.177-1.091,0.108-1.265,0.632l-0.899,2.696 c-1.267-0.26-2.344-0.396-3.153-0.468V4.499c0-0.553-0.448-1-1-1s-1,0.447-1,1V6.34c-0.527,0.022-1.444,0.085-2.635,0.264 l-0.378-2.269c-0.091-0.544-0.604-0.917-1.151-0.822c-0.544,0.091-0.913,0.606-0.822,1.15l0.385,2.308 c-1.076,0.237-2.263,0.56-3.519,1.004l-0.931-2.793c-0.174-0.523-0.74-0.809-1.265-0.632c-0.524,0.174-0.807,0.74-0.632,1.265 l0.964,2.892c-0.866,0.377-1.747,0.821-2.629,1.327l-1.492-2.983c-0.247-0.494-0.846-0.693-1.342-0.447 c-0.494,0.247-0.694,0.848-0.447,1.342l1.576,3.152c-0.885,0.605-1.756,1.295-2.604,2.064l-2.37-2.37 c-0.391-0.391-1.023-0.391-1.414,0s-0.391,1.023,0,1.414l2.358,2.358c-3.057,3.275-5.613,7.844-6.797,14.242 c-0.015,0.083-0.025,0.167-0.04,0.25c-0.254-0.07-0.512-0.118-0.776-0.118C1.73,28.939,0,31.321,0,34.362s1.73,5.424,3.939,5.424 c0.403,0,0.798-0.102,1.177-0.267c0.701,2.671,1.863,5.179,3.459,7.378c3.179,4.382,9.447,9.605,21.259,9.606l0.545-0.004 l0.572,0.004c11.81,0,18.079-5.224,21.259-9.606c2.88-3.97,4.346-8.945,4.229-14.075c0.034,0.001,0.068,0.014,0.103,0.014 c0.228,0,0.454-0.026,0.674-0.079C59.363,32.244,60.496,29.525,59.795,26.567z M4.674,37.488c-0.206,0.166-0.456,0.298-0.734,0.298 C3.022,37.786,2,36.38,2,34.362s1.022-3.424,1.939-3.424c0.167,0,0.335,0.047,0.504,0.139c-0.049,0.533-0.081,1.066-0.096,1.597 c-0.001,0.034,0,0.067-0.001,0.101c-0.011,0.445-0.009,0.889,0.004,1.332c0.004,0.136,0.009,0.271,0.015,0.407 c0.016,0.36,0.042,0.719,0.074,1.076c0.012,0.141,0.021,0.282,0.036,0.422c0.047,0.438,0.106,0.874,0.177,1.307 C4.66,37.375,4.664,37.432,4.674,37.488z M29.553,24.605l6-3c0.496-0.246,1.094-0.046,1.342,0.447 c0.247,0.494,0.047,1.095-0.447,1.342l-6,3c-0.144,0.071-0.296,0.105-0.446,0.105c-0.367,0-0.72-0.202-0.896-0.553 C28.858,25.452,29.059,24.852,29.553,24.605z M23.895,25.946c-0.175,0.351-0.528,0.553-0.896,0.553 c-0.15,0-0.303-0.034-0.446-0.105l-6-3c-0.494-0.247-0.694-0.848-0.447-1.342c0.248-0.493,0.846-0.693,1.342-0.447l6,3 C23.941,24.852,24.142,25.452,23.895,25.946z M34,48.499c-0.552,0-1-0.447-1-1c0-1.419-4.928-3-12-3c-0.552,0-1-0.447-1-1 s0.448-1,1-1c2.338,0,14,0.241,14,5C35,48.052,34.552,48.499,34,48.499z M36.5,40.499c-4.136,0-7.5-3.364-7.5-7.5 c0-1.379-1.122-2.5-2.5-2.5s-2.5,1.121-2.5,2.5c0,4.136-3.364,7.5-7.5,7.5S9,37.135,9,32.999s3.364-7.5,7.5-7.5 c3.009,0,5.602,1.785,6.796,4.348c0.817-0.83,1.95-1.348,3.204-1.348s2.387,0.518,3.204,1.348c1.194-2.563,3.787-4.348,6.796-4.348 c4.136,0,7.5,3.364,7.5,7.5S40.636,40.499,36.5,40.499z M56.751,30.812c-0.137,0.031-0.281,0.03-0.436,0 c-0.004-0.036-0.011-0.07-0.015-0.106c-0.068-0.63-0.153-1.261-0.269-1.891c-0.001-0.003-0.001-0.006-0.001-0.009 c-0.002-0.011-0.005-0.021-0.007-0.032c-0.143-0.768-0.309-1.504-0.49-2.22c-0.011-0.044-0.025-0.088-0.036-0.132 c-0.19-0.739-0.401-1.446-0.628-2.131c0.1-0.069,0.203-0.115,0.307-0.141c0.906-0.212,2.204,0.895,2.674,2.879 C58.314,28.992,57.645,30.599,56.751,30.812z"/> </g> </g>
</svg>